<!-- Generated by IcoMoon.io -->
<svg version="1.1" xmlns="http://www.w3.org/2000/svg" width="10" height="32" viewBox="0 0 10 32">
<title>Repeat-Grid-11</title>
<path fill="#0d9206" opacity="0.081" d="M0.81 0.405c0 0.224-0.181 0.405-0.405 0.405s-0.405-0.181-0.405-0.405c0-0.224 0.181-0.405 0.405-0.405s0.405 0.181 0.405 0.405z"></path>
<path fill="#0d9206" opacity="0.081" d="M2.835 0.405c0 0.224-0.181 0.405-0.405 0.405s-0.405-0.181-0.405-0.405c0-0.224 0.181-0.405 0.405-0.405s0.405 0.181 0.405 0.405z"></path>
<path fill="#0d9206" opacity="0.081" d="M4.861 0.405c0 0.224-0.181 0.405-0.405 0.405s-0.405-0.181-0.405-0.405c0-0.224 0.181-0.405 0.405-0.405s0.405 0.181 0.405 0.405z"></path>
<path fill="#0d9206" opacity="0.081" d="M6.886 0.405c0 0.224-0.181 0.405-0.405 0.405s-0.405-0.181-0.405-0.405c0-0.224 0.181-0.405 0.405-0.405s0.405 0.181 0.405 0.405z"></path>
<path fill="#0d9206" opacity="0.081" d="M8.911 0.405c0 0.224-0.181 0.405-0.405 0.405s-0.405-0.181-0.405-0.405c0-0.224 0.181-0.405 0.405-0.405s0.405 0.181 0.405 0.405z"></path>
<path fill="#0d9206" opacity="0.081" d="M0.81 2.43c0 0.224-0.181 0.405-0.405 0.405s-0.405-0.181-0.405-0.405c0-0.224 0.181-0.405 0.405-0.405s0.405 0.181 0.405 0.405z"></path>
<path fill="#0d9206" opacity="0.081" d="M2.835 2.43c0 0.224-0.181 0.405-0.405 0.405s-0.405-0.181-0.405-0.405c0-0.224 0.181-0.405 0.405-0.405s0.405 0.181 0.405 0.405z"></path>
<path fill="#0d9206" opacity="0.081" d="M4.861 2.43c0 0.224-0.181 0.405-0.405 0.405s-0.405-0.181-0.405-0.405c0-0.224 0.181-0.405 0.405-0.405s0.405 0.181 0.405 0.405z"></path>
<path fill="#0d9206" opacity="0.081" d="M6.886 2.43c0 0.224-0.181 0.405-0.405 0.405s-0.405-0.181-0.405-0.405c0-0.224 0.181-0.405 0.405-0.405s0.405 0.181 0.405 0.405z"></path>
<path fill="#0d9206" opacity="0.081" d="M8.911 2.43c0 0.224-0.181 0.405-0.405 0.405s-0.405-0.181-0.405-0.405c0-0.224 0.181-0.405 0.405-0.405s0.405 0.181 0.405 0.405z"></path>
<path fill="#0d9206" opacity="0.081" d="M0.81 4.456c0 0.224-0.181 0.405-0.405 0.405s-0.405-0.181-0.405-0.405c0-0.224 0.181-0.405 0.405-0.405s0.405 0.181 0.405 0.405z"></path>
<path fill="#0d9206" opacity="0.081" d="M2.835 4.456c0 0.224-0.181 0.405-0.405 0.405s-0.405-0.181-0.405-0.405c0-0.224 0.181-0.405 0.405-0.405s0.405 0.181 0.405 0.405z"></path>
<path fill="#0d9206" opacity="0.081" d="M4.861 4.456c0 0.224-0.181 0.405-0.405 0.405s-0.405-0.181-0.405-0.405c0-0.224 0.181-0.405 0.405-0.405s0.405 0.181 0.405 0.405z"></path>
<path fill="#0d9206" opacity="0.081" d="M6.886 4.456c0 0.224-0.181 0.405-0.405 0.405s-0.405-0.181-0.405-0.405c0-0.224 0.181-0.405 0.405-0.405s0.405 0.181 0.405 0.405z"></path>
<path fill="#0d9206" opacity="0.081" d="M8.911 4.456c0 0.224-0.181 0.405-0.405 0.405s-0.405-0.181-0.405-0.405c0-0.224 0.181-0.405 0.405-0.405s0.405 0.181 0.405 0.405z"></path>
<path fill="#0d9206" opacity="0.081" d="M0.81 6.481c0 0.224-0.181 0.405-0.405 0.405s-0.405-0.181-0.405-0.405c0-0.224 0.181-0.405 0.405-0.405s0.405 0.181 0.405 0.405z"></path>
<path fill="#0d9206" opacity="0.081" d="M2.835 6.481c0 0.224-0.181 0.405-0.405 0.405s-0.405-0.181-0.405-0.405c0-0.224 0.181-0.405 0.405-0.405s0.405 0.181 0.405 0.405z"></path>
<path fill="#0d9206" opacity="0.081" d="M4.861 6.481c0 0.224-0.181 0.405-0.405 0.405s-0.405-0.181-0.405-0.405c0-0.224 0.181-0.405 0.405-0.405s0.405 0.181 0.405 0.405z"></path>
<path fill="#0d9206" opacity="0.081" d="M6.886 6.481c0 0.224-0.181 0.405-0.405 0.405s-0.405-0.181-0.405-0.405c0-0.224 0.181-0.405 0.405-0.405s0.405 0.181 0.405 0.405z"></path>
<path fill="#0d9206" opacity="0.081" d="M8.911 6.481c0 0.224-0.181 0.405-0.405 0.405s-0.405-0.181-0.405-0.405c0-0.224 0.181-0.405 0.405-0.405s0.405 0.181 0.405 0.405z"></path>
<path fill="#0d9206" opacity="0.081" d="M0.81 8.506c0 0.224-0.181 0.405-0.405 0.405s-0.405-0.181-0.405-0.405c0-0.224 0.181-0.405 0.405-0.405s0.405 0.181 0.405 0.405z"></path>
<path fill="#0d9206" opacity="0.081" d="M2.835 8.506c0 0.224-0.181 0.405-0.405 0.405s-0.405-0.181-0.405-0.405c0-0.224 0.181-0.405 0.405-0.405s0.405 0.181 0.405 0.405z"></path>
<path fill="#0d9206" opacity="0.081" d="M4.861 8.506c0 0.224-0.181 0.405-0.405 0.405s-0.405-0.181-0.405-0.405c0-0.224 0.181-0.405 0.405-0.405s0.405 0.181 0.405 0.405z"></path>
<path fill="#0d9206" opacity="0.081" d="M6.886 8.506c0 0.224-0.181 0.405-0.405 0.405s-0.405-0.181-0.405-0.405c0-0.224 0.181-0.405 0.405-0.405s0.405 0.181 0.405 0.405z"></path>
<path fill="#0d9206" opacity="0.081" d="M8.911 8.506c0 0.224-0.181 0.405-0.405 0.405s-0.405-0.181-0.405-0.405c0-0.224 0.181-0.405 0.405-0.405s0.405 0.181 0.405 0.405z"></path>
<path fill="#0d9206" opacity="0.081" d="M0.81 10.532c0 0.224-0.181 0.405-0.405 0.405s-0.405-0.181-0.405-0.405c0-0.224 0.181-0.405 0.405-0.405s0.405 0.181 0.405 0.405z"></path>
<path fill="#0d9206" opacity="0.081" d="M2.835 10.532c0 0.224-0.181 0.405-0.405 0.405s-0.405-0.181-0.405-0.405c0-0.224 0.181-0.405 0.405-0.405s0.405 0.181 0.405 0.405z"></path>
<path fill="#0d9206" opacity="0.081" d="M4.861 10.532c0 0.224-0.181 0.405-0.405 0.405s-0.405-0.181-0.405-0.405c0-0.224 0.181-0.405 0.405-0.405s0.405 0.181 0.405 0.405z"></path>
<path fill="#0d9206" opacity="0.081" d="M6.886 10.532c0 0.224-0.181 0.405-0.405 0.405s-0.405-0.181-0.405-0.405c0-0.224 0.181-0.405 0.405-0.405s0.405 0.181 0.405 0.405z"></path>
<path fill="#0d9206" opacity="0.081" d="M8.911 10.532c0 0.224-0.181 0.405-0.405 0.405s-0.405-0.181-0.405-0.405c0-0.224 0.181-0.405 0.405-0.405s0.405 0.181 0.405 0.405z"></path>
<path fill="#0d9206" opacity="0.081" d="M0.81 12.557c0 0.224-0.181 0.405-0.405 0.405s-0.405-0.181-0.405-0.405c0-0.224 0.181-0.405 0.405-0.405s0.405 0.181 0.405 0.405z"></path>
<path fill="#0d9206" opacity="0.081" d="M2.835 12.557c0 0.224-0.181 0.405-0.405 0.405s-0.405-0.181-0.405-0.405c0-0.224 0.181-0.405 0.405-0.405s0.405 0.181 0.405 0.405z"></path>
<path fill="#0d9206" opacity="0.081" d="M4.861 12.557c0 0.224-0.181 0.405-0.405 0.405s-0.405-0.181-0.405-0.405c0-0.224 0.181-0.405 0.405-0.405s0.405 0.181 0.405 0.405z"></path>
<path fill="#0d9206" opacity="0.081" d="M6.886 12.557c0 0.224-0.181 0.405-0.405 0.405s-0.405-0.181-0.405-0.405c0-0.224 0.181-0.405 0.405-0.405s0.405 0.181 0.405 0.405z"></path>
<path fill="#0d9206" opacity="0.081" d="M8.911 12.557c0 0.224-0.181 0.405-0.405 0.405s-0.405-0.181-0.405-0.405c0-0.224 0.181-0.405 0.405-0.405s0.405 0.181 0.405 0.405z"></path>
<path fill="#0d9206" opacity="0.081" d="M0.81 14.582c0 0.224-0.181 0.405-0.405 0.405s-0.405-0.181-0.405-0.405c0-0.224 0.181-0.405 0.405-0.405s0.405 0.181 0.405 0.405z"></path>
<path fill="#0d9206" opacity="0.081" d="M2.835 14.582c0 0.224-0.181 0.405-0.405 0.405s-0.405-0.181-0.405-0.405c0-0.224 0.181-0.405 0.405-0.405s0.405 0.181 0.405 0.405z"></path>
<path fill="#0d9206" opacity="0.081" d="M4.861 14.582c0 0.224-0.181 0.405-0.405 0.405s-0.405-0.181-0.405-0.405c0-0.224 0.181-0.405 0.405-0.405s0.405 0.181 0.405 0.405z"></path>
<path fill="#0d9206" opacity="0.081" d="M6.886 14.582c0 0.224-0.181 0.405-0.405 0.405s-0.405-0.181-0.405-0.405c0-0.224 0.181-0.405 0.405-0.405s0.405 0.181 0.405 0.405z"></path>
<path fill="#0d9206" opacity="0.081" d="M8.911 14.582c0 0.224-0.181 0.405-0.405 0.405s-0.405-0.181-0.405-0.405c0-0.224 0.181-0.405 0.405-0.405s0.405 0.181 0.405 0.405z"></path>
<path fill="#0d9206" opacity="0.081" d="M0.81 16.608c0 0.224-0.181 0.405-0.405 0.405s-0.405-0.181-0.405-0.405c0-0.224 0.181-0.405 0.405-0.405s0.405 0.181 0.405 0.405z"></path>
<path fill="#0d9206" opacity="0.081" d="M2.835 16.608c0 0.224-0.181 0.405-0.405 0.405s-0.405-0.181-0.405-0.405c0-0.224 0.181-0.405 0.405-0.405s0.405 0.181 0.405 0.405z"></path>
<path fill="#0d9206" opacity="0.081" d="M4.861 16.608c0 0.224-0.181 0.405-0.405 0.405s-0.405-0.181-0.405-0.405c0-0.224 0.181-0.405 0.405-0.405s0.405 0.181 0.405 0.405z"></path>
<path fill="#0d9206" opacity="0.081" d="M6.886 16.608c0 0.224-0.181 0.405-0.405 0.405s-0.405-0.181-0.405-0.405c0-0.224 0.181-0.405 0.405-0.405s0.405 0.181 0.405 0.405z"></path>
<path fill="#0d9206" opacity="0.081" d="M8.911 16.608c0 0.224-0.181 0.405-0.405 0.405s-0.405-0.181-0.405-0.405c0-0.224 0.181-0.405 0.405-0.405s0.405 0.181 0.405 0.405z"></path>
<path fill="#0d9206" opacity="0.081" d="M0.81 18.633c0 0.224-0.181 0.405-0.405 0.405s-0.405-0.181-0.405-0.405c0-0.224 0.181-0.405 0.405-0.405s0.405 0.181 0.405 0.405z"></path>
<path fill="#0d9206" opacity="0.081" d="M2.835 18.633c0 0.224-0.181 0.405-0.405 0.405s-0.405-0.181-0.405-0.405c0-0.224 0.181-0.405 0.405-0.405s0.405 0.181 0.405 0.405z"></path>
<path fill="#0d9206" opacity="0.081" d="M4.861 18.633c0 0.224-0.181 0.405-0.405 0.405s-0.405-0.181-0.405-0.405c0-0.224 0.181-0.405 0.405-0.405s0.405 0.181 0.405 0.405z"></path>
<path fill="#0d9206" opacity="0.081" d="M6.886 18.633c0 0.224-0.181 0.405-0.405 0.405s-0.405-0.181-0.405-0.405c0-0.224 0.181-0.405 0.405-0.405s0.405 0.181 0.405 0.405z"></path>
<path fill="#0d9206" opacity="0.081" d="M8.911 18.633c0 0.224-0.181 0.405-0.405 0.405s-0.405-0.181-0.405-0.405c0-0.224 0.181-0.405 0.405-0.405s0.405 0.181 0.405 0.405z"></path>
<path fill="#0d9206" opacity="0.081" d="M0.81 20.658c0 0.224-0.181 0.405-0.405 0.405s-0.405-0.181-0.405-0.405c0-0.224 0.181-0.405 0.405-0.405s0.405 0.181 0.405 0.405z"></path>
<path fill="#0d9206" opacity="0.081" d="M2.835 20.658c0 0.224-0.181 0.405-0.405 0.405s-0.405-0.181-0.405-0.405c0-0.224 0.181-0.405 0.405-0.405s0.405 0.181 0.405 0.405z"></path>
<path fill="#0d9206" opacity="0.081" d="M4.861 20.658c0 0.224-0.181 0.405-0.405 0.405s-0.405-0.181-0.405-0.405c0-0.224 0.181-0.405 0.405-0.405s0.405 0.181 0.405 0.405z"></path>
<path fill="#0d9206" opacity="0.081" d="M6.886 20.658c0 0.224-0.181 0.405-0.405 0.405s-0.405-0.181-0.405-0.405c0-0.224 0.181-0.405 0.405-0.405s0.405 0.181 0.405 0.405z"></path>
<path fill="#0d9206" opacity="0.081" d="M8.911 20.658c0 0.224-0.181 0.405-0.405 0.405s-0.405-0.181-0.405-0.405c0-0.224 0.181-0.405 0.405-0.405s0.405 0.181 0.405 0.405z"></path>
<path fill="#0d9206" opacity="0.081" d="M0.81 22.684c0 0.224-0.181 0.405-0.405 0.405s-0.405-0.181-0.405-0.405c0-0.224 0.181-0.405 0.405-0.405s0.405 0.181 0.405 0.405z"></path>
<path fill="#0d9206" opacity="0.081" d="M2.835 22.684c0 0.224-0.181 0.405-0.405 0.405s-0.405-0.181-0.405-0.405c0-0.224 0.181-0.405 0.405-0.405s0.405 0.181 0.405 0.405z"></path>
<path fill="#0d9206" opacity="0.081" d="M4.861 22.684c0 0.224-0.181 0.405-0.405 0.405s-0.405-0.181-0.405-0.405c0-0.224 0.181-0.405 0.405-0.405s0.405 0.181 0.405 0.405z"></path>
<path fill="#0d9206" opacity="0.081" d="M6.886 22.684c0 0.224-0.181 0.405-0.405 0.405s-0.405-0.181-0.405-0.405c0-0.224 0.181-0.405 0.405-0.405s0.405 0.181 0.405 0.405z"></path>
<path fill="#0d9206" opacity="0.081" d="M8.911 22.684c0 0.224-0.181 0.405-0.405 0.405s-0.405-0.181-0.405-0.405c0-0.224 0.181-0.405 0.405-0.405s0.405 0.181 0.405 0.405z"></path>
<path fill="#0d9206" opacity="0.081" d="M0.81 24.709c0 0.224-0.181 0.405-0.405 0.405s-0.405-0.181-0.405-0.405c0-0.224 0.181-0.405 0.405-0.405s0.405 0.181 0.405 0.405z"></path>
<path fill="#0d9206" opacity="0.081" d="M2.835 24.709c0 0.224-0.181 0.405-0.405 0.405s-0.405-0.181-0.405-0.405c0-0.224 0.181-0.405 0.405-0.405s0.405 0.181 0.405 0.405z"></path>
<path fill="#0d9206" opacity="0.081" d="M4.861 24.709c0 0.224-0.181 0.405-0.405 0.405s-0.405-0.181-0.405-0.405c0-0.224 0.181-0.405 0.405-0.405s0.405 0.181 0.405 0.405z"></path>
<path fill="#0d9206" opacity="0.081" d="M6.886 24.709c0 0.224-0.181 0.405-0.405 0.405s-0.405-0.181-0.405-0.405c0-0.224 0.181-0.405 0.405-0.405s0.405 0.181 0.405 0.405z"></path>
<path fill="#0d9206" opacity="0.081" d="M8.911 24.709c0 0.224-0.181 0.405-0.405 0.405s-0.405-0.181-0.405-0.405c0-0.224 0.181-0.405 0.405-0.405s0.405 0.181 0.405 0.405z"></path>
<path fill="#0d9206" opacity="0.081" d="M0.81 26.734c0 0.224-0.181 0.405-0.405 0.405s-0.405-0.181-0.405-0.405c0-0.224 0.181-0.405 0.405-0.405s0.405 0.181 0.405 0.405z"></path>
<path fill="#0d9206" opacity="0.081" d="M2.835 26.734c0 0.224-0.181 0.405-0.405 0.405s-0.405-0.181-0.405-0.405c0-0.224 0.181-0.405 0.405-0.405s0.405 0.181 0.405 0.405z"></path>
<path fill="#0d9206" opacity="0.081" d="M4.861 26.734c0 0.224-0.181 0.405-0.405 0.405s-0.405-0.181-0.405-0.405c0-0.224 0.181-0.405 0.405-0.405s0.405 0.181 0.405 0.405z"></path>
<path fill="#0d9206" opacity="0.081" d="M6.886 26.734c0 0.224-0.181 0.405-0.405 0.405s-0.405-0.181-0.405-0.405c0-0.224 0.181-0.405 0.405-0.405s0.405 0.181 0.405 0.405z"></path>
<path fill="#0d9206" opacity="0.081" d="M8.911 26.734c0 0.224-0.181 0.405-0.405 0.405s-0.405-0.181-0.405-0.405c0-0.224 0.181-0.405 0.405-0.405s0.405 0.181 0.405 0.405z"></path>
<path fill="#0d9206" opacity="0.081" d="M0.81 28.759c0 0.224-0.181 0.405-0.405 0.405s-0.405-0.181-0.405-0.405c0-0.224 0.181-0.405 0.405-0.405s0.405 0.181 0.405 0.405z"></path>
<path fill="#0d9206" opacity="0.081" d="M2.835 28.759c0 0.224-0.181 0.405-0.405 0.405s-0.405-0.181-0.405-0.405c0-0.224 0.181-0.405 0.405-0.405s0.405 0.181 0.405 0.405z"></path>
<path fill="#0d9206" opacity="0.081" d="M4.861 28.759c0 0.224-0.181 0.405-0.405 0.405s-0.405-0.181-0.405-0.405c0-0.224 0.181-0.405 0.405-0.405s0.405 0.181 0.405 0.405z"></path>
<path fill="#0d9206" opacity="0.081" d="M6.886 28.759c0 0.224-0.181 0.405-0.405 0.405s-0.405-0.181-0.405-0.405c0-0.224 0.181-0.405 0.405-0.405s0.405 0.181 0.405 0.405z"></path>
<path fill="#0d9206" opacity="0.081" d="M8.911 28.759c0 0.224-0.181 0.405-0.405 0.405s-0.405-0.181-0.405-0.405c0-0.224 0.181-0.405 0.405-0.405s0.405 0.181 0.405 0.405z"></path>
<path fill="#0d9206" opacity="0.081" d="M0.81 30.785c0 0.224-0.181 0.405-0.405 0.405s-0.405-0.181-0.405-0.405c0-0.224 0.181-0.405 0.405-0.405s0.405 0.181 0.405 0.405z"></path>
<path fill="#0d9206" opacity="0.081" d="M2.835 30.785c0 0.224-0.181 0.405-0.405 0.405s-0.405-0.181-0.405-0.405c0-0.224 0.181-0.405 0.405-0.405s0.405 0.181 0.405 0.405z"></path>
<path fill="#0d9206" opacity="0.081" d="M4.861 30.785c0 0.224-0.181 0.405-0.405 0.405s-0.405-0.181-0.405-0.405c0-0.224 0.181-0.405 0.405-0.405s0.405 0.181 0.405 0.405z"></path>
<path fill="#0d9206" opacity="0.081" d="M6.886 30.785c0 0.224-0.181 0.405-0.405 0.405s-0.405-0.181-0.405-0.405c0-0.224 0.181-0.405 0.405-0.405s0.405 0.181 0.405 0.405z"></path>
<path fill="#0d9206" opacity="0.081" d="M8.911 30.785c0 0.224-0.181 0.405-0.405 0.405s-0.405-0.181-0.405-0.405c0-0.224 0.181-0.405 0.405-0.405s0.405 0.181 0.405 0.405z"></path>
</svg>
