<svg xmlns="http://www.w3.org/2000/svg" xmlns:xlink="http://www.w3.org/1999/xlink">
    <defs>
        <symbol id="arrow" viewBox="0 0 24 24">
            <path
                d="M15.707,15.707l-3,3a1,1,0,0,1-1.414,0l-3-3a1,1,0,0,1,1.414-1.414L11,15.586V6a1,1,0,0,1,2,0v9.586l1.293-1.293a1,1,0,0,1,1.414,1.414Z">
            </path>
        </symbol>
        <symbol id="share" viewBox="0 0 29 32">
            <path fill="none" stroke-linejoin="round" stroke-linecap="round" stroke-miterlimit="4" stroke-width="2.9091"
                d="M27.636 5.818c0 2.41-1.954 4.364-4.364 4.364s-4.364-1.954-4.364-4.364c0-2.41 1.954-4.364 4.364-4.364v0c2.41 0 4.364 1.954 4.364 4.364v0z">
            </path>
            <path fill="none" stroke-linejoin="round" stroke-linecap="round" stroke-miterlimit="4" stroke-width="2.9091"
                d="M10.182 16c0 2.41-1.954 4.364-4.364 4.364s-4.364-1.954-4.364-4.364c0-2.41 1.954-4.364 4.364-4.364v0c2.41 0 4.364 1.954 4.364 4.364v0z">
            </path>
            <path fill="none" stroke-linejoin="round" stroke-linecap="round" stroke-miterlimit="4" stroke-width="2.9091"
                d="M27.636 26.182c0 2.41-1.954 4.364-4.364 4.364s-4.364-1.954-4.364-4.364c0-2.41 1.954-4.364 4.364-4.364v0c2.41 0 4.364 1.954 4.364 4.364v0z">
            </path>
            <path fill="none" stroke-linejoin="round" stroke-linecap="round" stroke-miterlimit="4" stroke-width="2.9091"
                d="M9.585 18.196l9.935 5.789"></path>
            <path fill="none" stroke-linejoin="round" stroke-linecap="round" stroke-miterlimit="4" stroke-width="2.9091"
                d="M19.505 8.015l-9.92 5.789"></path>
        </symbol>
        <symbol id="facebook" viewBox="0 0 17 32">
            <path
                d="M16.016 18l0.889-5.788h-5.557v-3.76c0-1.585 0.776-3.129 3.265-3.129h2.526v-4.931c-1.333-0.227-2.883-0.368-4.462-0.391l-0.023-0c-4.58 0-7.567 2.773-7.567 7.795v4.414h-5.090v5.788h5.090v14.002h6.26v-14z">
            </path>
        </symbol>
        <symbol id="twitter" viewBox="0 0 39 32">
            <path
                d="M39.375 3.788c-1.351 0.617-2.918 1.066-4.562 1.269l-0.078 0.008c1.67-1.011 2.926-2.564 3.536-4.41l0.016-0.057c-1.477 0.892-3.195 1.572-5.026 1.943l-0.104 0.018c-1.478-1.569-3.57-2.545-5.889-2.545-4.466 0-8.086 3.62-8.086 8.086 0 0.648 0.076 1.279 0.22 1.883l-0.011-0.055c-6.731-0.349-12.651-3.549-16.618-8.406l-0.033-0.041c-0.688 1.164-1.094 2.565-1.094 4.061 0 2.792 1.414 5.253 3.566 6.706l0.029 0.018c-1.35-0.043-2.605-0.413-3.7-1.032l0.040 0.021c0 0.033 0 0.068 0 0.102 0.001 3.896 2.758 7.149 6.428 7.912l0.052 0.009c-0.636 0.18-1.367 0.283-2.122 0.283-0.54 0-1.067-0.053-1.578-0.154l0.051 0.008c1.061 3.237 4.025 5.547 7.538 5.616l0.008 0c-2.727 2.156-6.215 3.458-10.008 3.458-0.009 0-0.018 0-0.027-0h0.001c-0 0-0.001 0-0.001 0-0.679 0-1.348-0.041-2.005-0.121l0.079 0.008c3.494 2.276 7.77 3.63 12.362 3.63 0.007 0 0.013 0 0.020 0h-0.001c14.859 0 22.985-12.31 22.985-22.985q0-0.526-0.023-1.045c1.587-1.156 2.925-2.542 3.994-4.124l0.037-0.058z">
            </path>
        </symbol>
        <symbol id="instagram" viewBox="0 0 32 32">
            <path
                d="M16 2.881c4.275 0 4.781 0.019 6.462 0.094 1.563 0.069 2.406 0.331 2.969 0.55 0.744 0.288 1.281 0.638 1.837 1.194 0.563 0.563 0.906 1.094 1.2 1.838 0.219 0.563 0.481 1.412 0.55 2.969 0.075 1.688 0.094 2.194 0.094 6.463s-0.019 4.781-0.094 6.463c-0.069 1.563-0.331 2.406-0.55 2.969-0.288 0.744-0.637 1.281-1.194 1.837-0.563 0.563-1.094 0.906-1.837 1.2-0.563 0.219-1.413 0.481-2.969 0.55-1.688 0.075-2.194 0.094-6.463 0.094s-4.781-0.019-6.463-0.094c-1.563-0.069-2.406-0.331-2.969-0.55-0.744-0.288-1.281-0.637-1.838-1.194-0.563-0.563-0.906-1.094-1.2-1.837-0.219-0.563-0.481-1.413-0.55-2.969-0.075-1.688-0.094-2.194-0.094-6.463s0.019-4.781 0.094-6.463c0.069-1.563 0.331-2.406 0.55-2.969 0.288-0.744 0.638-1.281 1.194-1.838 0.563-0.563 1.094-0.906 1.838-1.2 0.563-0.219 1.412-0.481 2.969-0.55 1.681-0.075 2.188-0.094 6.463-0.094zM16 0c-4.344 0-4.887 0.019-6.594 0.094-1.7 0.075-2.869 0.35-3.881 0.744-1.056 0.412-1.95 0.956-2.837 1.85-0.894 0.888-1.438 1.781-1.85 2.831-0.394 1.019-0.669 2.181-0.744 3.881-0.075 1.713-0.094 2.256-0.094 6.6s0.019 4.887 0.094 6.594c0.075 1.7 0.35 2.869 0.744 3.881 0.413 1.056 0.956 1.95 1.85 2.837 0.887 0.887 1.781 1.438 2.831 1.844 1.019 0.394 2.181 0.669 3.881 0.744 1.706 0.075 2.25 0.094 6.594 0.094s4.888-0.019 6.594-0.094c1.7-0.075 2.869-0.35 3.881-0.744 1.050-0.406 1.944-0.956 2.831-1.844s1.438-1.781 1.844-2.831c0.394-1.019 0.669-2.181 0.744-3.881 0.075-1.706 0.094-2.25 0.094-6.594s-0.019-4.887-0.094-6.594c-0.075-1.7-0.35-2.869-0.744-3.881-0.394-1.063-0.938-1.956-1.831-2.844-0.887-0.887-1.781-1.438-2.831-1.844-1.019-0.394-2.181-0.669-3.881-0.744-1.712-0.081-2.256-0.1-6.6-0.1v0z">
            </path>
            <path
                d="M16 7.781c-4.537 0-8.219 3.681-8.219 8.219s3.681 8.219 8.219 8.219 8.219-3.681 8.219-8.219c0-4.537-3.681-8.219-8.219-8.219zM16 21.331c-2.944 0-5.331-2.387-5.331-5.331s2.387-5.331 5.331-5.331c2.944 0 5.331 2.387 5.331 5.331s-2.387 5.331-5.331 5.331z">
            </path>
            <path
                d="M26.462 7.456c0 1.060-0.859 1.919-1.919 1.919s-1.919-0.859-1.919-1.919c0-1.060 0.859-1.919 1.919-1.919s1.919 0.859 1.919 1.919z">
            </path>
        </symbol>
        <symbol id="point-grid" viewBox="0 0 10 32">
            <path
                d="M0.81 0.405c0 0.224-0.181 0.405-0.405 0.405s-0.405-0.181-0.405-0.405c0-0.224 0.181-0.405 0.405-0.405s0.405 0.181 0.405 0.405z">
            </path>
            <path
                d="M2.835 0.405c0 0.224-0.181 0.405-0.405 0.405s-0.405-0.181-0.405-0.405c0-0.224 0.181-0.405 0.405-0.405s0.405 0.181 0.405 0.405z">
            </path>
            <path
                d="M4.861 0.405c0 0.224-0.181 0.405-0.405 0.405s-0.405-0.181-0.405-0.405c0-0.224 0.181-0.405 0.405-0.405s0.405 0.181 0.405 0.405z">
            </path>
            <path
                d="M6.886 0.405c0 0.224-0.181 0.405-0.405 0.405s-0.405-0.181-0.405-0.405c0-0.224 0.181-0.405 0.405-0.405s0.405 0.181 0.405 0.405z">
            </path>
            <path
                d="M8.911 0.405c0 0.224-0.181 0.405-0.405 0.405s-0.405-0.181-0.405-0.405c0-0.224 0.181-0.405 0.405-0.405s0.405 0.181 0.405 0.405z">
            </path>
            <path
                d="M0.81 2.43c0 0.224-0.181 0.405-0.405 0.405s-0.405-0.181-0.405-0.405c0-0.224 0.181-0.405 0.405-0.405s0.405 0.181 0.405 0.405z">
            </path>
            <path
                d="M2.835 2.43c0 0.224-0.181 0.405-0.405 0.405s-0.405-0.181-0.405-0.405c0-0.224 0.181-0.405 0.405-0.405s0.405 0.181 0.405 0.405z">
            </path>
            <path
                d="M4.861 2.43c0 0.224-0.181 0.405-0.405 0.405s-0.405-0.181-0.405-0.405c0-0.224 0.181-0.405 0.405-0.405s0.405 0.181 0.405 0.405z">
            </path>
            <path
                d="M6.886 2.43c0 0.224-0.181 0.405-0.405 0.405s-0.405-0.181-0.405-0.405c0-0.224 0.181-0.405 0.405-0.405s0.405 0.181 0.405 0.405z">
            </path>
            <path
                d="M8.911 2.43c0 0.224-0.181 0.405-0.405 0.405s-0.405-0.181-0.405-0.405c0-0.224 0.181-0.405 0.405-0.405s0.405 0.181 0.405 0.405z">
            </path>
            <path
                d="M0.81 4.456c0 0.224-0.181 0.405-0.405 0.405s-0.405-0.181-0.405-0.405c0-0.224 0.181-0.405 0.405-0.405s0.405 0.181 0.405 0.405z">
            </path>
            <path
                d="M2.835 4.456c0 0.224-0.181 0.405-0.405 0.405s-0.405-0.181-0.405-0.405c0-0.224 0.181-0.405 0.405-0.405s0.405 0.181 0.405 0.405z">
            </path>
            <path
                d="M4.861 4.456c0 0.224-0.181 0.405-0.405 0.405s-0.405-0.181-0.405-0.405c0-0.224 0.181-0.405 0.405-0.405s0.405 0.181 0.405 0.405z">
            </path>
            <path
                d="M6.886 4.456c0 0.224-0.181 0.405-0.405 0.405s-0.405-0.181-0.405-0.405c0-0.224 0.181-0.405 0.405-0.405s0.405 0.181 0.405 0.405z">
            </path>
            <path
                d="M8.911 4.456c0 0.224-0.181 0.405-0.405 0.405s-0.405-0.181-0.405-0.405c0-0.224 0.181-0.405 0.405-0.405s0.405 0.181 0.405 0.405z">
            </path>
            <path
                d="M0.81 6.481c0 0.224-0.181 0.405-0.405 0.405s-0.405-0.181-0.405-0.405c0-0.224 0.181-0.405 0.405-0.405s0.405 0.181 0.405 0.405z">
            </path>
            <path
                d="M2.835 6.481c0 0.224-0.181 0.405-0.405 0.405s-0.405-0.181-0.405-0.405c0-0.224 0.181-0.405 0.405-0.405s0.405 0.181 0.405 0.405z">
            </path>
            <path
                d="M4.861 6.481c0 0.224-0.181 0.405-0.405 0.405s-0.405-0.181-0.405-0.405c0-0.224 0.181-0.405 0.405-0.405s0.405 0.181 0.405 0.405z">
            </path>
            <path
                d="M6.886 6.481c0 0.224-0.181 0.405-0.405 0.405s-0.405-0.181-0.405-0.405c0-0.224 0.181-0.405 0.405-0.405s0.405 0.181 0.405 0.405z">
            </path>
            <path
                d="M8.911 6.481c0 0.224-0.181 0.405-0.405 0.405s-0.405-0.181-0.405-0.405c0-0.224 0.181-0.405 0.405-0.405s0.405 0.181 0.405 0.405z">
            </path>
            <path
                d="M0.81 8.506c0 0.224-0.181 0.405-0.405 0.405s-0.405-0.181-0.405-0.405c0-0.224 0.181-0.405 0.405-0.405s0.405 0.181 0.405 0.405z">
            </path>
            <path
                d="M2.835 8.506c0 0.224-0.181 0.405-0.405 0.405s-0.405-0.181-0.405-0.405c0-0.224 0.181-0.405 0.405-0.405s0.405 0.181 0.405 0.405z">
            </path>
            <path
                d="M4.861 8.506c0 0.224-0.181 0.405-0.405 0.405s-0.405-0.181-0.405-0.405c0-0.224 0.181-0.405 0.405-0.405s0.405 0.181 0.405 0.405z">
            </path>
            <path
                d="M6.886 8.506c0 0.224-0.181 0.405-0.405 0.405s-0.405-0.181-0.405-0.405c0-0.224 0.181-0.405 0.405-0.405s0.405 0.181 0.405 0.405z">
            </path>
            <path
                d="M8.911 8.506c0 0.224-0.181 0.405-0.405 0.405s-0.405-0.181-0.405-0.405c0-0.224 0.181-0.405 0.405-0.405s0.405 0.181 0.405 0.405z">
            </path>
            <path
                d="M0.81 10.532c0 0.224-0.181 0.405-0.405 0.405s-0.405-0.181-0.405-0.405c0-0.224 0.181-0.405 0.405-0.405s0.405 0.181 0.405 0.405z">
            </path>
            <path
                d="M2.835 10.532c0 0.224-0.181 0.405-0.405 0.405s-0.405-0.181-0.405-0.405c0-0.224 0.181-0.405 0.405-0.405s0.405 0.181 0.405 0.405z">
            </path>
            <path
                d="M4.861 10.532c0 0.224-0.181 0.405-0.405 0.405s-0.405-0.181-0.405-0.405c0-0.224 0.181-0.405 0.405-0.405s0.405 0.181 0.405 0.405z">
            </path>
            <path
                d="M6.886 10.532c0 0.224-0.181 0.405-0.405 0.405s-0.405-0.181-0.405-0.405c0-0.224 0.181-0.405 0.405-0.405s0.405 0.181 0.405 0.405z">
            </path>
            <path
                d="M8.911 10.532c0 0.224-0.181 0.405-0.405 0.405s-0.405-0.181-0.405-0.405c0-0.224 0.181-0.405 0.405-0.405s0.405 0.181 0.405 0.405z">
            </path>
            <path
                d="M0.81 12.557c0 0.224-0.181 0.405-0.405 0.405s-0.405-0.181-0.405-0.405c0-0.224 0.181-0.405 0.405-0.405s0.405 0.181 0.405 0.405z">
            </path>
            <path
                d="M2.835 12.557c0 0.224-0.181 0.405-0.405 0.405s-0.405-0.181-0.405-0.405c0-0.224 0.181-0.405 0.405-0.405s0.405 0.181 0.405 0.405z">
            </path>
            <path
                d="M4.861 12.557c0 0.224-0.181 0.405-0.405 0.405s-0.405-0.181-0.405-0.405c0-0.224 0.181-0.405 0.405-0.405s0.405 0.181 0.405 0.405z">
            </path>
            <path
                d="M6.886 12.557c0 0.224-0.181 0.405-0.405 0.405s-0.405-0.181-0.405-0.405c0-0.224 0.181-0.405 0.405-0.405s0.405 0.181 0.405 0.405z">
            </path>
            <path
                d="M8.911 12.557c0 0.224-0.181 0.405-0.405 0.405s-0.405-0.181-0.405-0.405c0-0.224 0.181-0.405 0.405-0.405s0.405 0.181 0.405 0.405z">
            </path>
            <path
                d="M0.81 14.582c0 0.224-0.181 0.405-0.405 0.405s-0.405-0.181-0.405-0.405c0-0.224 0.181-0.405 0.405-0.405s0.405 0.181 0.405 0.405z">
            </path>
            <path
                d="M2.835 14.582c0 0.224-0.181 0.405-0.405 0.405s-0.405-0.181-0.405-0.405c0-0.224 0.181-0.405 0.405-0.405s0.405 0.181 0.405 0.405z">
            </path>
            <path
                d="M4.861 14.582c0 0.224-0.181 0.405-0.405 0.405s-0.405-0.181-0.405-0.405c0-0.224 0.181-0.405 0.405-0.405s0.405 0.181 0.405 0.405z">
            </path>
            <path
                d="M6.886 14.582c0 0.224-0.181 0.405-0.405 0.405s-0.405-0.181-0.405-0.405c0-0.224 0.181-0.405 0.405-0.405s0.405 0.181 0.405 0.405z">
            </path>
            <path
                d="M8.911 14.582c0 0.224-0.181 0.405-0.405 0.405s-0.405-0.181-0.405-0.405c0-0.224 0.181-0.405 0.405-0.405s0.405 0.181 0.405 0.405z">
            </path>
            <path
                d="M0.81 16.608c0 0.224-0.181 0.405-0.405 0.405s-0.405-0.181-0.405-0.405c0-0.224 0.181-0.405 0.405-0.405s0.405 0.181 0.405 0.405z">
            </path>
            <path
                d="M2.835 16.608c0 0.224-0.181 0.405-0.405 0.405s-0.405-0.181-0.405-0.405c0-0.224 0.181-0.405 0.405-0.405s0.405 0.181 0.405 0.405z">
            </path>
            <path
                d="M4.861 16.608c0 0.224-0.181 0.405-0.405 0.405s-0.405-0.181-0.405-0.405c0-0.224 0.181-0.405 0.405-0.405s0.405 0.181 0.405 0.405z">
            </path>
            <path
                d="M6.886 16.608c0 0.224-0.181 0.405-0.405 0.405s-0.405-0.181-0.405-0.405c0-0.224 0.181-0.405 0.405-0.405s0.405 0.181 0.405 0.405z">
            </path>
            <path
                d="M8.911 16.608c0 0.224-0.181 0.405-0.405 0.405s-0.405-0.181-0.405-0.405c0-0.224 0.181-0.405 0.405-0.405s0.405 0.181 0.405 0.405z">
            </path>
            <path
                d="M0.81 18.633c0 0.224-0.181 0.405-0.405 0.405s-0.405-0.181-0.405-0.405c0-0.224 0.181-0.405 0.405-0.405s0.405 0.181 0.405 0.405z">
            </path>
            <path
                d="M2.835 18.633c0 0.224-0.181 0.405-0.405 0.405s-0.405-0.181-0.405-0.405c0-0.224 0.181-0.405 0.405-0.405s0.405 0.181 0.405 0.405z">
            </path>
            <path
                d="M4.861 18.633c0 0.224-0.181 0.405-0.405 0.405s-0.405-0.181-0.405-0.405c0-0.224 0.181-0.405 0.405-0.405s0.405 0.181 0.405 0.405z">
            </path>
            <path
                d="M6.886 18.633c0 0.224-0.181 0.405-0.405 0.405s-0.405-0.181-0.405-0.405c0-0.224 0.181-0.405 0.405-0.405s0.405 0.181 0.405 0.405z">
            </path>
            <path
                d="M8.911 18.633c0 0.224-0.181 0.405-0.405 0.405s-0.405-0.181-0.405-0.405c0-0.224 0.181-0.405 0.405-0.405s0.405 0.181 0.405 0.405z">
            </path>
            <path
                d="M0.81 20.658c0 0.224-0.181 0.405-0.405 0.405s-0.405-0.181-0.405-0.405c0-0.224 0.181-0.405 0.405-0.405s0.405 0.181 0.405 0.405z">
            </path>
            <path
                d="M2.835 20.658c0 0.224-0.181 0.405-0.405 0.405s-0.405-0.181-0.405-0.405c0-0.224 0.181-0.405 0.405-0.405s0.405 0.181 0.405 0.405z">
            </path>
            <path
                d="M4.861 20.658c0 0.224-0.181 0.405-0.405 0.405s-0.405-0.181-0.405-0.405c0-0.224 0.181-0.405 0.405-0.405s0.405 0.181 0.405 0.405z">
            </path>
            <path
                d="M6.886 20.658c0 0.224-0.181 0.405-0.405 0.405s-0.405-0.181-0.405-0.405c0-0.224 0.181-0.405 0.405-0.405s0.405 0.181 0.405 0.405z">
            </path>
            <path
                d="M8.911 20.658c0 0.224-0.181 0.405-0.405 0.405s-0.405-0.181-0.405-0.405c0-0.224 0.181-0.405 0.405-0.405s0.405 0.181 0.405 0.405z">
            </path>
            <path
                d="M0.81 22.684c0 0.224-0.181 0.405-0.405 0.405s-0.405-0.181-0.405-0.405c0-0.224 0.181-0.405 0.405-0.405s0.405 0.181 0.405 0.405z">
            </path>
            <path
                d="M2.835 22.684c0 0.224-0.181 0.405-0.405 0.405s-0.405-0.181-0.405-0.405c0-0.224 0.181-0.405 0.405-0.405s0.405 0.181 0.405 0.405z">
            </path>
            <path
                d="M4.861 22.684c0 0.224-0.181 0.405-0.405 0.405s-0.405-0.181-0.405-0.405c0-0.224 0.181-0.405 0.405-0.405s0.405 0.181 0.405 0.405z">
            </path>
            <path
                d="M6.886 22.684c0 0.224-0.181 0.405-0.405 0.405s-0.405-0.181-0.405-0.405c0-0.224 0.181-0.405 0.405-0.405s0.405 0.181 0.405 0.405z">
            </path>
            <path
                d="M8.911 22.684c0 0.224-0.181 0.405-0.405 0.405s-0.405-0.181-0.405-0.405c0-0.224 0.181-0.405 0.405-0.405s0.405 0.181 0.405 0.405z">
            </path>
            <path
                d="M0.81 24.709c0 0.224-0.181 0.405-0.405 0.405s-0.405-0.181-0.405-0.405c0-0.224 0.181-0.405 0.405-0.405s0.405 0.181 0.405 0.405z">
            </path>
            <path
                d="M2.835 24.709c0 0.224-0.181 0.405-0.405 0.405s-0.405-0.181-0.405-0.405c0-0.224 0.181-0.405 0.405-0.405s0.405 0.181 0.405 0.405z">
            </path>
            <path
                d="M4.861 24.709c0 0.224-0.181 0.405-0.405 0.405s-0.405-0.181-0.405-0.405c0-0.224 0.181-0.405 0.405-0.405s0.405 0.181 0.405 0.405z">
            </path>
            <path
                d="M6.886 24.709c0 0.224-0.181 0.405-0.405 0.405s-0.405-0.181-0.405-0.405c0-0.224 0.181-0.405 0.405-0.405s0.405 0.181 0.405 0.405z">
            </path>
            <path
                d="M8.911 24.709c0 0.224-0.181 0.405-0.405 0.405s-0.405-0.181-0.405-0.405c0-0.224 0.181-0.405 0.405-0.405s0.405 0.181 0.405 0.405z">
            </path>
            <path
                d="M0.81 26.734c0 0.224-0.181 0.405-0.405 0.405s-0.405-0.181-0.405-0.405c0-0.224 0.181-0.405 0.405-0.405s0.405 0.181 0.405 0.405z">
            </path>
            <path
                d="M2.835 26.734c0 0.224-0.181 0.405-0.405 0.405s-0.405-0.181-0.405-0.405c0-0.224 0.181-0.405 0.405-0.405s0.405 0.181 0.405 0.405z">
            </path>
            <path
                d="M4.861 26.734c0 0.224-0.181 0.405-0.405 0.405s-0.405-0.181-0.405-0.405c0-0.224 0.181-0.405 0.405-0.405s0.405 0.181 0.405 0.405z">
            </path>
            <path
                d="M6.886 26.734c0 0.224-0.181 0.405-0.405 0.405s-0.405-0.181-0.405-0.405c0-0.224 0.181-0.405 0.405-0.405s0.405 0.181 0.405 0.405z">
            </path>
            <path
                d="M8.911 26.734c0 0.224-0.181 0.405-0.405 0.405s-0.405-0.181-0.405-0.405c0-0.224 0.181-0.405 0.405-0.405s0.405 0.181 0.405 0.405z">
            </path>
            <path
                d="M0.81 28.759c0 0.224-0.181 0.405-0.405 0.405s-0.405-0.181-0.405-0.405c0-0.224 0.181-0.405 0.405-0.405s0.405 0.181 0.405 0.405z">
            </path>
            <path
                d="M2.835 28.759c0 0.224-0.181 0.405-0.405 0.405s-0.405-0.181-0.405-0.405c0-0.224 0.181-0.405 0.405-0.405s0.405 0.181 0.405 0.405z">
            </path>
            <path
                d="M4.861 28.759c0 0.224-0.181 0.405-0.405 0.405s-0.405-0.181-0.405-0.405c0-0.224 0.181-0.405 0.405-0.405s0.405 0.181 0.405 0.405z">
            </path>
            <path
                d="M6.886 28.759c0 0.224-0.181 0.405-0.405 0.405s-0.405-0.181-0.405-0.405c0-0.224 0.181-0.405 0.405-0.405s0.405 0.181 0.405 0.405z">
            </path>
            <path
                d="M8.911 28.759c0 0.224-0.181 0.405-0.405 0.405s-0.405-0.181-0.405-0.405c0-0.224 0.181-0.405 0.405-0.405s0.405 0.181 0.405 0.405z">
            </path>
            <path
                d="M0.81 30.785c0 0.224-0.181 0.405-0.405 0.405s-0.405-0.181-0.405-0.405c0-0.224 0.181-0.405 0.405-0.405s0.405 0.181 0.405 0.405z">
            </path>
            <path
                d="M2.835 30.785c0 0.224-0.181 0.405-0.405 0.405s-0.405-0.181-0.405-0.405c0-0.224 0.181-0.405 0.405-0.405s0.405 0.181 0.405 0.405z">
            </path>
            <path
                d="M4.861 30.785c0 0.224-0.181 0.405-0.405 0.405s-0.405-0.181-0.405-0.405c0-0.224 0.181-0.405 0.405-0.405s0.405 0.181 0.405 0.405z">
            </path>
            <path
                d="M6.886 30.785c0 0.224-0.181 0.405-0.405 0.405s-0.405-0.181-0.405-0.405c0-0.224 0.181-0.405 0.405-0.405s0.405 0.181 0.405 0.405z">
            </path>
            <path
                d="M8.911 30.785c0 0.224-0.181 0.405-0.405 0.405s-0.405-0.181-0.405-0.405c0-0.224 0.181-0.405 0.405-0.405s0.405 0.181 0.405 0.405z">
            </path>
        </symbol>
    </defs>
</svg>